<svg width="445" height="139" viewBox="0 0 445 139" fill="none" xmlns="http://www.w3.org/2000/svg">
<circle cx="28" cy="39" r="18" fill="#293F6E"/>
<circle cx="94.5" cy="39.5" r="29.5" fill="#051A1F"/>
<circle cx="94" cy="101" r="21" fill="#008BCC"/>
<circle cx="28" cy="101" r="28" fill="#BF3F4A"/>
<path d="M197.316 92.5684H166.753L160.942 110H142.407L173.9 25.3984H190.053L221.721 110H203.185L197.316 92.5684ZM171.459 78.4487H192.61L181.977 46.7812L171.459 78.4487ZM281.221 87.1646L289.472 47.1299H305.683L289.646 110H275.584L263.673 70.4302L251.761 110H237.758L221.721 47.1299H237.932L246.125 87.1064L257.63 47.1299H269.774L281.221 87.1646ZM331.772 110H314.922V47.1299H331.772V110ZM313.934 30.8604C313.934 28.3424 314.767 26.27 316.433 24.6431C318.137 23.0161 320.442 22.2026 323.347 22.2026C326.214 22.2026 328.499 23.0161 330.204 24.6431C331.908 26.27 332.76 28.3424 332.76 30.8604C332.76 33.417 331.889 35.5088 330.146 37.1357C328.441 38.7627 326.175 39.5762 323.347 39.5762C320.519 39.5762 318.234 38.7627 316.491 37.1357C314.786 35.5088 313.934 33.417 313.934 30.8604ZM365.764 31.6738V47.1299H376.514V59.4482H365.764V90.8252C365.764 93.1494 366.21 94.8151 367.101 95.8223C367.992 96.8294 369.696 97.333 372.214 97.333C374.073 97.333 375.72 97.1974 377.153 96.9263V109.651C373.86 110.659 370.471 111.162 366.984 111.162C355.208 111.162 349.204 105.216 348.972 93.3237V59.4482H339.791V47.1299H348.972V31.6738H365.764ZM381.511 77.9839C381.511 71.7472 382.712 66.1885 385.113 61.3076C387.515 56.4268 390.963 52.6499 395.456 49.9771C399.988 47.3042 405.237 45.9678 411.203 45.9678C419.686 45.9678 426.601 48.5632 431.946 53.7539C437.331 58.9447 440.333 65.9948 440.953 74.9043L441.069 79.2041C441.069 88.8496 438.377 96.597 432.992 102.446C427.608 108.257 420.383 111.162 411.319 111.162C402.254 111.162 395.011 108.257 389.587 102.446C384.203 96.6357 381.511 88.7334 381.511 78.7393V77.9839ZM398.303 79.2041C398.303 85.1696 399.427 89.7406 401.673 92.917C403.92 96.0547 407.135 97.6235 411.319 97.6235C415.386 97.6235 418.563 96.0741 420.848 92.9751C423.134 89.8374 424.276 84.8403 424.276 77.9839C424.276 72.1346 423.134 67.6024 420.848 64.3872C418.563 61.172 415.347 59.5645 411.203 59.5645C407.097 59.5645 403.92 61.172 401.673 64.3872C399.427 67.5636 398.303 72.5026 398.303 79.2041Z" fill="black"/>
</svg>
