<?xml version="1.0" standalone="no"?>
<!DOCTYPE svg PUBLIC "-//W3C//DTD SVG 20010904//EN"
 "http://www.w3.org/TR/2001/REC-SVG-20010904/DTD/svg10.dtd">
<svg version="1.0" xmlns="http://www.w3.org/2000/svg"
 width="512.000000pt" height="512.000000pt" viewBox="0 0 512.000000 512.000000"
 preserveAspectRatio="xMidYMid meet">

<g transform="translate(0.000000,512.000000) scale(0.100000,-0.100000)"
fill="#5A98D0" stroke="none">
<path d="M514 5105 c-261 -57 -459 -264 -505 -529 -24 -142 13 -323 92 -447
29 -46 253 -277 792 -816 l752 -753 -752 -752 c-539 -540 -763 -771 -792 -817
-108 -168 -128 -393 -54 -581 151 -381 620 -527 960 -299 26 17 387 370 800
783 l753 751 753 -752 c539 -539 770 -763 816 -792 104 -66 204 -94 341 -95
85 -1 131 4 175 18 239 73 410 258 461 498 32 148 -3 338 -87 469 -29 46 -253
277 -792 817 l-752 752 752 753 c539 539 763 770 792 816 66 104 94 204 95
341 1 164 -42 289 -139 408 -215 261 -585 317 -862 131 -26 -17 -387 -370
-800 -783 l-753 -751 -753 751 c-413 413 -774 766 -800 783 -141 95 -329 132
-493 96z m291 -309 c53 -25 159 -127 875 -841 864 -862 835 -836 913 -820 26
6 195 169 847 819 764 761 819 814 880 842 56 25 77 29 155 29 82 0 97 -3 157
-33 74 -36 129 -91 168 -168 22 -43 25 -62 25 -149 0 -173 59 -103 -865 -1030
-444 -445 -813 -820 -819 -832 -14 -28 -14 -78 0 -106 6 -12 375 -386 819
-832 921 -924 865 -858 865 -1025 0 -82 -4 -103 -26 -151 -37 -79 -90 -133
-167 -171 -60 -30 -75 -33 -157 -33 -78 0 -99 4 -155 29 -61 28 -116 80 -875
837 -445 444 -820 812 -832 818 -28 14 -78 14 -106 0 -12 -6 -386 -374 -832
-818 -759 -757 -814 -809 -875 -837 -56 -25 -77 -29 -155 -29 -82 0 -97 3
-157 33 -74 36 -129 91 -168 168 -21 42 -25 62 -25 144 0 170 -68 89 850 1010
447 448 820 829 829 847 20 41 20 85 0 126 -9 18 -382 399 -829 847 -918 921
-850 840 -850 1010 0 81 4 102 25 143 34 67 81 120 140 156 69 42 103 50 200
48 71 -2 95 -7 145 -31z"/>
</g>
</svg>
