<svg width="688" height="624" viewBox="0 0 688 624" fill="none" xmlns="http://www.w3.org/2000/svg">
<path opacity="0.4" d="M624.607 75.4102C479.832 6.51749 415.969 194.909 316.138 225.906C216.394 271.253 120.215 218.176 60.8283 263.674C-33.3064 335.794 8.01039 461.963 68.2737 515.05C154.694 591.18 308.272 563.78 467.012 481.462C665.894 378.329 751.55 135.817 624.607 75.4102Z" fill="#98C3E8"/>
<path opacity="0.2" d="M143.5 150.5C148.5 163 133.5 182.5 112 189C93.4998 194.593 75.4998 194 70.4998 181C66.0767 169.5 79.9998 157 95.9998 150.5C112 144 138.5 138 143.5 150.5Z" fill="#98C3E8"/>
<path opacity="0.2" d="M307 125C303.109 115.06 316.816 91.8658 333.802 86.7986C348.419 82.4383 362.111 72.1637 366 82.5C369.44 91.6437 358.909 112.325 346.26 117.415C333.612 122.505 310.891 134.94 307 125Z" fill="#98C3E8"/>
<path opacity="0.2" d="M295.792 617.215C291.901 607.276 303.816 591.866 320.802 586.799C335.419 582.438 349.614 582.985 353.503 593.321C356.944 602.465 345.908 612.325 333.26 617.415C320.612 622.505 299.684 627.155 295.792 617.215Z" fill="#98C3E8"/>
<path opacity="0.2" d="M471.573 566.55C463.478 547.52 489.279 505.235 524.573 495.55C554.942 487.216 603.982 504.26 612.072 524.05C619.229 541.555 572.353 538.66 546.074 548.393C519.795 558.126 479.667 585.579 471.573 566.55Z" fill="#98C3E8"/>
<mask id="mask0" style="mask-type:alpha" maskUnits="userSpaceOnUse" x="20" y="64" width="648" height="490">
<path d="M606.962 76.9443C466.39 14.869 410.042 197.479 315.141 230.024C220.694 276.339 127.118 228.084 71.3641 273.416C-17.0125 345.272 25.8608 465.217 85.0062 514.486C169.824 585.139 316.342 554.544 466.39 471.093C654.38 366.539 730.22 131.374 606.962 76.9443Z" fill="#98C3E8"/>
</mask>
<g mask="url(#mask0)">
<rect x="-85.083" y="-16.5983" width="805.162" height="681.485" fill="url(#paint0_linear)"/>
<path d="M16.5085 200.467C90.336 237.697 172.998 341.904 172.998 391.662C172.998 452.869 43.221 546.678 -16.3037 599.893L491.655 632.705C473.566 551.726 427.894 371.7 455.688 331.716C491.655 279.974 637.207 292.594 718.816 302.059L740.902 71.7424C701.148 88.3588 612.177 136.105 563.589 123.485C518.615 111.803 432.34 61.4359 395.742 29.4651" stroke="white" stroke-opacity="0.2" stroke-width="15"/>
<path d="M206.441 143.677C226.634 248.844 281.531 441.637 339.583 371.469C412.149 283.76 469.57 170.179 523.837 245.269C567.25 305.34 631.107 423.843 657.61 475.585" stroke="white" stroke-opacity="0.2" stroke-width="15"/>
<path fill-rule="evenodd" clip-rule="evenodd" d="M434 205C434 209.418 430.418 213 426 213C421.582 213 418 209.418 418 205C418 200.582 421.582 197 426 197C430.418 197 434 200.582 434 205ZM103 378C107.418 378 111 374.418 111 370C111 365.582 107.418 362 103 362C98.5817 362 95 365.582 95 370C95 374.418 98.5817 378 103 378ZM277 480C281.418 480 285 476.418 285 472C285 467.582 281.418 464 277 464C272.582 464 269 467.582 269 472C269 476.418 272.582 480 277 480ZM551 362C555.418 362 559 358.418 559 354C559 349.582 555.418 346 551 346C546.582 346 543 349.582 543 354C543 358.418 546.582 362 551 362Z" fill="white" fill-opacity="0.6"/>
<circle cx="73" cy="457" r="18" stroke="white" stroke-opacity="0.4" stroke-width="8"/>
<circle cx="653" cy="180" r="18" stroke="white" stroke-opacity="0.4" stroke-width="8"/>
<circle cx="403" cy="413" r="18" stroke="white" stroke-opacity="0.4" stroke-width="8"/>
</g>
<g filter="url(#filter0_d)">
<rect x="453" y="134" width="88" height="88" rx="10" fill="white"/>
</g>
<path d="M493 194V182H501V194H511V178H517L497 160L477 178H483V194H493Z" fill="#5A98D0"/>
<g filter="url(#filter1_d)">
<path d="M440.423 10.7564H412.992C409.207 10.7564 406.139 13.0422 406.139 15.8619V36.2951C406.139 39.1147 409.207 41.4005 412.992 41.4005H440.423C444.208 41.4005 447.277 39.1147 447.277 36.2951V15.8619C447.277 13.0422 444.208 10.7564 440.423 10.7564Z" fill="#56CCF2"/>
</g>
<path d="M437 25.0074H432.83L436.07 22.5772L434.66 21.5121L430 25.0074H428V23.5073L432.66 20.012L431.24 18.9545L428 21.3846V18.2569H426V21.3846L422.76 18.9545L421.34 20.012L426 23.5073V25.0074H424L419.34 21.5121L417.93 22.5772L421.17 25.0074H417V26.5075H421.17L417.93 28.9376L419.34 30.0027L424 26.5075H426V28.0076L421.34 31.5028L422.76 32.5604L426 30.1302V33.2579H428V30.1302L431.24 32.5604L432.66 31.5028L428 28.0076V26.5075H430L434.66 30.0027L436.07 28.9376L432.83 26.5075H437V25.0074Z" fill="white"/>
<g filter="url(#filter2_d)">
<path d="M614.284 88.0114H586.854C583.069 88.0114 580 90.2972 580 93.1168V113.55C580 116.37 583.069 118.656 586.854 118.656H614.284C618.07 118.656 621.138 116.37 621.138 113.55V93.1168C621.138 90.2972 618.07 88.0114 614.284 88.0114Z" fill="#F2C94C"/>
</g>
<path d="M610 100.762C610 97.012 606 94.0118 601 94.0118C596 94.0118 592 97.012 592 100.762C592 103.087 593.6 105.188 596 106.388V108.263C596 109.238 596.8 110.063 598 110.363V110.513C598 111.788 599.3 112.763 601 112.763C602.7 112.763 604 111.788 604 110.513V110.363C605.2 110.063 606 109.238 606 108.263V106.388C608.4 105.188 610 103.087 610 100.762ZM594 100.762C594 97.8371 597.1 95.5119 601 95.5119C604.9 95.5119 608 97.8371 608 100.762C608 103.387 605.4 105.563 602 105.938V104.062L603.7 102.787C604.1 102.487 604.1 102.037 603.7 101.737C603.3 101.437 602.7 101.437 602.3 101.737L601 102.712L599.7 101.737C599.3 101.437 598.7 101.437 598.3 101.737C597.9 102.037 597.9 102.487 598.3 102.787L600 104.062V105.938C596.6 105.563 594 103.387 594 100.762ZM601 111.263C600.4 111.263 600 110.963 600 110.513H602C602 110.963 601.6 111.263 601 111.263ZM604 108.263C604 108.713 603.6 109.013 603 109.013H599C598.4 109.013 598 108.713 598 108.263V107.138C598.9 107.363 599.9 107.513 601 107.513C602.1 107.513 603.1 107.363 604 107.138V108.263Z" fill="white"/>
<g filter="url(#filter3_d)">
<path d="M394.284 88.0114H366.854C363.069 88.0114 360 90.2972 360 93.1168V113.55C360 116.37 363.069 118.655 366.854 118.655H394.284C398.07 118.655 401.138 116.37 401.138 113.55V93.1168C401.138 90.2972 398.07 88.0114 394.284 88.0114Z" fill="#F58A8A"/>
</g>
<g clip-path="url(#clip0)">
<path d="M387 100.012H386V98.5121C386 96.442 383.76 94.7619 381 94.7619C378.24 94.7619 376 96.442 376 98.5121V100.012H375C373.9 100.012 373 100.687 373 101.512V109.013C373 109.838 373.9 110.513 375 110.513H387C388.1 110.513 389 109.838 389 109.013V101.512C389 100.687 388.1 100.012 387 100.012ZM381 106.763C379.9 106.763 379 106.088 379 105.263C379 104.437 379.9 103.762 381 103.762C382.1 103.762 383 104.437 383 105.263C383 106.088 382.1 106.763 381 106.763ZM384.1 100.012H377.9V98.5121C377.9 97.2295 379.29 96.187 381 96.187C382.71 96.187 384.1 97.2295 384.1 98.5121V100.012Z" fill="white"/>
</g>
<g filter="url(#filter4_d)">
<path d="M568.284 10.7564H540.854C537.069 10.7564 534 13.0422 534 15.8619V36.2951C534 39.1147 537.069 41.4005 540.854 41.4005H568.284C572.07 41.4005 575.138 39.1147 575.138 36.2951V15.8619C575.138 13.0422 572.07 10.7564 568.284 10.7564Z" fill="#6FCF97"/>
</g>
<path d="M560.311 21.9295H543.979V29.5851H560.311V21.9295Z" fill="white"/>
<path d="M564.713 23.4529L561.108 24.5893V26.9576L564.713 28.094H566.02V23.4529H564.713Z" fill="white"/>
<path d="M500.39 217C499.274 221.364 500.787 223.88 501.978 224.5C504.34 225.73 506.977 227.27 506.977 227.27C506.977 227.27 523.406 255.414 528.168 257.429C533.724 259.778 546.422 261 546.422 261L551.978 249.889C551.978 249.889 539.279 247.111 533.724 245.921C529.98 245.118 513.486 227.27 513.486 227.27L516.66 221.714H510.708C506.343 218.54 503.977 212 503.977 212C503.977 212 501.153 214.02 500.39 217Z" fill="url(#paint1_linear)"/>
<path d="M565.478 267.5C563.478 265.5 551.978 262.333 546.478 261L551.978 250C554.144 250 560.478 249.5 568.478 247.5C578.478 245 581.978 236 593.478 245.5C602.678 253.1 618.644 286.333 625.478 302C614.731 312.243 607.594 315.569 593.478 318.5C592.644 316.833 590.178 311.2 586.978 302C582.978 290.5 570.478 290.5 568.478 286.5C566.478 282.5 567.978 270 565.478 267.5Z" fill="url(#paint2_linear)"/>
<path d="M601.478 381C597.878 373 597.811 335 596.478 317.5C608.671 315.103 615.111 312.016 625.478 301.5C625.478 301.5 642.478 309.5 641.478 328C640.478 346.5 647.998 355.841 652.478 362C656.478 367.5 665.978 379.167 670.978 387L665.978 396.5C660.478 390.667 644.378 378.8 635.978 372C627.578 365.2 624.811 348.167 623.478 339C622.644 348.667 618.478 366.4 620.478 372C622.478 377.6 643.978 394.5 652.478 403L649.478 411.5C634.978 404.667 605.078 389 601.478 381Z" fill="url(#paint3_linear)"/>
<path d="M559.477 233.5C559.877 231.9 559.311 227.167 559.978 225.5C564.778 226.3 567.477 229.667 568.477 231C569.477 230.833 570.912 230.369 571.477 231.5C571.977 232.5 571.477 234.5 569.977 236L573.477 245.5C571.819 246.577 570.809 246.939 568.977 247.5C569.977 245 569.477 243 568.977 242C565.377 244.8 563.977 244.667 562.477 244.5L560.977 238L558.478 238.5C558.978 237.667 559.077 235.1 559.477 233.5Z" fill="url(#paint4_linear)"/>
<path d="M568.477 231C566.477 228.2 561.644 226.167 559.477 225.5C555.477 222.5 557.477 216 566.977 213C576.477 210 580.477 218 582.477 220C584.477 222 585.477 228.5 594.477 232.5C603.477 236.5 602.977 231.5 608.477 231.5C613.977 231.5 616.477 235 615.477 238C614.477 241 613.977 244.5 619.977 248.5C625.977 252.5 620.477 258 619.977 264C619.477 270 611.477 267 602.977 267C594.477 267 595.977 267 594.477 261.5C592.977 256 590.477 254 587.477 252.5C584.477 251 577.477 252 575.977 250.5C574.777 249.3 571.477 240.333 569.977 236C570.644 235 571.877 232.7 571.477 231.5C571.077 230.3 569.31 230.667 568.477 231Z" fill="#F2994A"/>
<path d="M549.478 291.5L573.478 290C576.278 290.4 580.978 293.833 582.978 295.5C582.311 297 580.378 300 577.978 300C575.578 300 557.978 297 549.478 295.5H547.478V288L549.478 291.5Z" fill="url(#paint5_linear)"/>
<path d="M547.478 299V282H538.978V299H547.478Z" fill="#F2C94C"/>
<path d="M665.978 425.5C663.578 425.1 653.811 415.833 649.478 411.5L652.478 403C654.478 403.833 658.678 405.3 659.478 406.5C660.478 408 668.978 426 665.978 425.5Z" fill="#5A98D0"/>
<path d="M677.978 414.5C676.778 412.5 669.478 402.833 665.978 396.5L670.978 387C673.311 389 673.478 389 675.978 392.5C677.14 394.127 679.478 417 677.978 414.5Z" fill="#5A98D0"/>
<path opacity="0.2" d="M626.478 324.5L623.478 339.5C623.978 345 626.978 358.5 631.978 368C625.978 349 627.978 334.833 626.478 324.5Z" fill="black"/>
<path d="M196 549L194.5 544L202.5 542.5C206.333 544.5 213.7 548.9 212.5 550.5C212.1 551.3 201.333 549.833 196 549Z" fill="#D06262"/>
<path d="M155.5 502L160 509.5C159.667 514.667 158.6 524.8 157 524C155.4 523.2 150.333 510.333 148 504L155.5 502Z" fill="#D06262"/>
<path d="M129.328 456.993C123.999 451.458 119.156 441.024 117.401 436.5C122.529 434.019 133.924 428.352 138.484 425.522C143.044 422.693 151.693 416.274 155.447 413.418C157.637 415.392 164.01 420.262 171.981 423.948C192.452 433.613 204.145 446.095 208.185 457.272C211.418 466.213 198.175 479.449 190.651 484.994C186.292 477.586 183.669 474.59 178.501 467.534L180.257 459.338L169.933 456.271C171.459 458.307 176.461 465.01 184.258 475.54C198.328 493.125 203.2 523.172 203.878 535.997C201.253 536.573 194.79 537.636 189.937 537.279C189.364 531.05 181.559 517.211 174.106 504.959C172.59 506.773 170.489 508.942 169.265 509.054C163.07 507.214 161.151 499.089 160.966 495.256L165.648 491.335C165.006 490.31 164.406 489.349 163.856 488.463C156.193 476.113 135.99 463.912 129.328 456.993Z" fill="#1F3F68"/>
<path d="M157.347 412.239C142.813 423.451 112.728 443.557 108.662 434.291C103.58 422.708 104.576 422.616 101.766 419.36C98.9555 416.103 98.2686 408.635 96.998 405.739C96.3594 404.284 91.211 397.917 87.0954 390.08C87.0954 390.08 86.9717 389.853 86.7625 389.439C83.8406 383.737 81.5329 377.32 81.9125 371.477C82.2029 362.914 88.7162 357.391 88.7162 357.391C92.5981 353.253 96.2389 352.558 97.5 352.669L97.5233 352.685C100.558 354.749 105.045 357.8 106.634 357.654C108.228 357.508 110.5 354.5 112 353C119.606 353.807 121.929 351.859 127.874 352.669C135.205 353.669 155 364 170.5 336.5C172.04 336.861 175.511 338.229 178 338C169.5 363 162 370.781 155 373.231C149.628 375.112 145.395 375.636 142.052 375.602C141.438 378.863 140.623 384.224 139.263 389.691C142.058 394.807 145.012 399.505 147.332 401.612C153.358 407.083 160.163 410.102 157.347 412.239Z" fill="white"/>
<path d="M157.062 441.89L170.477 456.723L180.258 459.338L179.674 463.911C181.919 461.027 184.797 454.101 178.346 449.472C171.895 444.844 161.469 442.489 157.062 441.89Z" fill="black" fill-opacity="0.2"/>
<path d="M165.625 491.313L173.923 505.111L172.567 506.742C171.342 504.344 168.126 502.129 165.408 499.869C163.233 498.061 162.777 494.922 162.821 493.579L165.625 491.313Z" fill="black" fill-opacity="0.2"/>
<path d="M127.067 416.028C112.87 414.522 95.6038 399.675 88.7456 392.439C104.604 406.546 123.032 410.374 128.87 408.331C133.54 406.696 137.12 394.527 139.001 389.5L142.799 396.003C143.471 403.306 141.265 417.534 127.067 416.028Z" fill="black" fill-opacity="0.2"/>
<path d="M121.967 387.877C118.82 388.452 110.674 381.551 107.019 378.206C120.474 388.014 120.5 383 137.5 371C136.762 372.072 129.5 386.5 121.967 387.877Z" fill="black" fill-opacity="0.2"/>
<path d="M142.5 373.5C140.787 373.156 139.296 372.576 137.5 371L139 367.5C138.833 366.667 138.6 364.8 139 364C139.4 363.2 141 362.333 141.5 362L141 364.5L143.5 361.5L147.5 365L147 368.5L144 370L142.5 373.5Z" fill="#F2994A"/>
<path d="M179 333L178 338C176.4 338.4 172.167 337.167 170.5 336.5C171 335 172.6 331 173 329C173.4 327 177.167 324.833 179 324H181L179 327.5V333Z" fill="#F2994A"/>
<path d="M94.9997 342.5C95.7997 344.1 97.9997 347.5 98.9997 349C99.6664 347.667 100.6 344.7 98.9997 343.5C97.3997 342.3 95.9997 340.333 95.4998 339.5C95.9998 339.167 97.2998 338.5 98.4998 338.5C97.6998 332.5 101.833 330.333 104 330L112.5 329.5L113 332C116.166 329 121.9 322.5 119.5 320.5C116.5 318 107.5 324.5 101.5 324.5C95.4998 324.5 92.9997 327.5 91.4997 330.5C89.9997 333.5 93.9997 340.5 94.9997 342.5Z" fill="#316099"/>
<path d="M106.5 358C104.9 358 100.333 354.833 97.5 353C98.8333 352.333 99.5 349.8 99.5 349C99.5 348 100.5 344 99.5 343.5C98.5 343 95.5 341 95.5 340C95.5 339.2 97.5 339 98.5 339C98.1667 337.333 98.1 333.5 100.5 331.5C102.9 329.5 109.5 329.333 112.5 329.5C112.667 330.167 113.3 333 114.5 339C115.7 345 113 347.833 111.5 348.5L112 353C110.833 354.5 108.1 358 106.5 358Z" fill="#F2994A"/>
<path d="M202.5 542.5L202 536.5C198.469 537.446 196.371 537.613 192.5 537.5L194.5 544L202.5 542.5Z" fill="#98C3E8"/>
<path d="M160 509.5L166 507.5C163.322 504.423 162.421 502.668 161.5 499.5L155.5 502L160 509.5Z" fill="#98C3E8"/>
<rect opacity="0.8" x="187" y="262" width="266.284" height="189.301" rx="5" fill="url(#paint6_linear)"/>
<path d="M187 267C187 264.239 189.239 262 192 262H263.983V451.301H192C189.239 451.301 187 449.063 187 446.301V267Z" fill="white"/>
<circle cx="199" cy="274" r="4" fill="#FA9595"/>
<circle cx="212" cy="274" r="4" fill="#FDF397"/>
<circle cx="224" cy="274" r="4" fill="#C1FEBB"/>
<path opacity="0.4" fill-rule="evenodd" clip-rule="evenodd" d="M196 368H254V375H196V368ZM196 382H254V389H196V382ZM235 398H196V405H235V398Z" fill="#5A98D0"/>
<path opacity="0.1" fill-rule="evenodd" clip-rule="evenodd" d="M373 287H431V294H373V287ZM373 301H431V308H373V301ZM412 317H373V324H412V317Z" fill="black"/>
<g filter="url(#filter5_d)">
<rect x="179" y="288" width="81" height="50" rx="5" fill="#56CCF2"/>
</g>
<path d="M203.344 310.136C202.688 309.24 201.76 308.792 200.544 308.792C199.44 308.792 198.512 309.192 197.728 310.008C196.944 310.824 196.56 311.816 196.56 313C196.56 314.168 196.944 315.176 197.728 315.992C198.512 316.808 199.44 317.208 200.544 317.208C201.76 317.208 202.688 316.76 203.344 315.848V317H205.072V309H203.344V310.136ZM199.008 314.84C198.528 314.344 198.288 313.736 198.288 313C198.288 312.264 198.528 311.656 199.008 311.176C199.488 310.68 200.096 310.44 200.816 310.44C201.536 310.44 202.144 310.68 202.624 311.176C203.104 311.656 203.344 312.264 203.344 313C203.344 313.736 203.104 314.344 202.624 314.84C202.144 315.32 201.536 315.56 200.816 315.56C200.096 315.56 199.488 315.32 199.008 314.84ZM212.078 305.592C209.71 305.448 208.462 306.648 208.462 308.84V309H207.246V310.664H208.462V317H210.19V310.664H212.078V309H210.19V308.84C210.19 307.672 210.814 307.144 212.078 307.256V305.592ZM215.617 309H213.889V317H215.617V312.968C215.617 312.152 215.857 311.56 216.353 311.208C216.849 310.84 217.425 310.68 218.081 310.728V308.856C216.881 308.856 216.049 309.352 215.617 310.344V309ZM221.79 307.48C222.238 307.032 222.238 306.36 221.806 305.928C221.374 305.48 220.67 305.48 220.238 305.928C219.806 306.36 219.806 307.032 220.238 307.48C220.686 307.912 221.358 307.912 221.79 307.48ZM221.886 317V309H220.158V317H221.886ZM231.028 310.136C230.372 309.24 229.444 308.792 228.228 308.792C227.124 308.792 226.196 309.192 225.412 310.008C224.628 310.824 224.244 311.816 224.244 313C224.244 314.168 224.628 315.176 225.412 315.992C226.196 316.808 227.124 317.208 228.228 317.208C229.444 317.208 230.372 316.76 231.028 315.848V317H232.756V309H231.028V310.136ZM226.692 314.84C226.212 314.344 225.972 313.736 225.972 313C225.972 312.264 226.212 311.656 226.692 311.176C227.172 310.68 227.78 310.44 228.5 310.44C229.22 310.44 229.828 310.68 230.308 311.176C230.788 311.656 231.028 312.264 231.028 313C231.028 313.736 230.788 314.344 230.308 314.84C229.828 315.32 229.22 315.56 228.5 315.56C227.78 315.56 227.172 315.32 226.692 314.84ZM239.779 308.792C238.643 308.792 237.827 309.208 237.299 310.024V309H235.571V317H237.299V312.712C237.299 311.16 238.115 310.408 239.331 310.408C240.435 310.408 241.123 311.064 241.123 312.264V317H242.851V312.088C242.851 310.04 241.619 308.792 239.779 308.792Z" fill="white"/>
<rect x="281" y="280" width="79" height="77" rx="5" fill="#EB5757"/>
<g clip-path="url(#clip1)">
<path d="M312 305V333L334 319L312 305Z" fill="white"/>
</g>
<g filter="url(#filter6_d)">
<rect x="281" y="370" width="154" height="63" rx="5" fill="#6FCF97"/>
</g>
<path d="M294.5 415C304 408.5 308 400 326 400C344 400 345.58 410 356.5 410C369.5 410 382 390.5 396 390.5C410 390.5 413.5 400.5 421 401" stroke="black" stroke-opacity="0.1" stroke-width="2" stroke-linecap="round" stroke-linejoin="round"/>
<path d="M294 415.5C303.5 409 306 390 324 390C342 390 346.08 406.5 357 406.5C370 406.5 381.5 379.5 395.5 379.5C409.5 379.5 414 400.5 421.5 401" stroke="white" stroke-width="2" stroke-linecap="round" stroke-linejoin="round"/>
<defs>
<filter id="filter0_d" x="403" y="84" width="188" height="188" filterUnits="userSpaceOnUse" color-interpolation-filters="sRGB">
<feFlood flood-opacity="0" result="BackgroundImageFix"/>
<feColorMatrix in="SourceAlpha" type="matrix" values="0 0 0 0 0 0 0 0 0 0 0 0 0 0 0 0 0 0 127 0" result="hardAlpha"/>
<feOffset/>
<feGaussianBlur stdDeviation="25"/>
<feColorMatrix type="matrix" values="0 0 0 0 0.0627451 0 0 0 0 0.439216 0 0 0 0 0.694118 0 0 0 0.25 0"/>
<feBlend mode="normal" in2="BackgroundImageFix" result="effect1_dropShadow"/>
<feBlend mode="normal" in="SourceGraphic" in2="effect1_dropShadow" result="shape"/>
</filter>
<filter id="filter1_d" x="396.139" y="0.756439" width="71.1382" height="60.6441" filterUnits="userSpaceOnUse" color-interpolation-filters="sRGB">
<feFlood flood-opacity="0" result="BackgroundImageFix"/>
<feColorMatrix in="SourceAlpha" type="matrix" values="0 0 0 0 0 0 0 0 0 0 0 0 0 0 0 0 0 0 127 0" result="hardAlpha"/>
<feOffset dx="5" dy="5"/>
<feGaussianBlur stdDeviation="7.5"/>
<feColorMatrix type="matrix" values="0 0 0 0 0 0 0 0 0 0 0 0 0 0 0 0 0 0 0.15 0"/>
<feBlend mode="normal" in2="BackgroundImageFix" result="effect1_dropShadow"/>
<feBlend mode="normal" in="SourceGraphic" in2="effect1_dropShadow" result="shape"/>
</filter>
<filter id="filter2_d" x="570" y="78.0114" width="71.1382" height="60.6441" filterUnits="userSpaceOnUse" color-interpolation-filters="sRGB">
<feFlood flood-opacity="0" result="BackgroundImageFix"/>
<feColorMatrix in="SourceAlpha" type="matrix" values="0 0 0 0 0 0 0 0 0 0 0 0 0 0 0 0 0 0 127 0" result="hardAlpha"/>
<feOffset dx="5" dy="5"/>
<feGaussianBlur stdDeviation="7.5"/>
<feColorMatrix type="matrix" values="0 0 0 0 0 0 0 0 0 0 0 0 0 0 0 0 0 0 0.15 0"/>
<feBlend mode="normal" in2="BackgroundImageFix" result="effect1_dropShadow"/>
<feBlend mode="normal" in="SourceGraphic" in2="effect1_dropShadow" result="shape"/>
</filter>
<filter id="filter3_d" x="350" y="78.0114" width="71.1382" height="60.6441" filterUnits="userSpaceOnUse" color-interpolation-filters="sRGB">
<feFlood flood-opacity="0" result="BackgroundImageFix"/>
<feColorMatrix in="SourceAlpha" type="matrix" values="0 0 0 0 0 0 0 0 0 0 0 0 0 0 0 0 0 0 127 0" result="hardAlpha"/>
<feOffset dx="5" dy="5"/>
<feGaussianBlur stdDeviation="7.5"/>
<feColorMatrix type="matrix" values="0 0 0 0 0 0 0 0 0 0 0 0 0 0 0 0 0 0 0.15 0"/>
<feBlend mode="normal" in2="BackgroundImageFix" result="effect1_dropShadow"/>
<feBlend mode="normal" in="SourceGraphic" in2="effect1_dropShadow" result="shape"/>
</filter>
<filter id="filter4_d" x="524" y="0.756439" width="71.1382" height="60.6441" filterUnits="userSpaceOnUse" color-interpolation-filters="sRGB">
<feFlood flood-opacity="0" result="BackgroundImageFix"/>
<feColorMatrix in="SourceAlpha" type="matrix" values="0 0 0 0 0 0 0 0 0 0 0 0 0 0 0 0 0 0 127 0" result="hardAlpha"/>
<feOffset dx="5" dy="5"/>
<feGaussianBlur stdDeviation="7.5"/>
<feColorMatrix type="matrix" values="0 0 0 0 0 0 0 0 0 0 0 0 0 0 0 0 0 0 0.15 0"/>
<feBlend mode="normal" in2="BackgroundImageFix" result="effect1_dropShadow"/>
<feBlend mode="normal" in="SourceGraphic" in2="effect1_dropShadow" result="shape"/>
</filter>
<filter id="filter5_d" x="174" y="283" width="101" height="70" filterUnits="userSpaceOnUse" color-interpolation-filters="sRGB">
<feFlood flood-opacity="0" result="BackgroundImageFix"/>
<feColorMatrix in="SourceAlpha" type="matrix" values="0 0 0 0 0 0 0 0 0 0 0 0 0 0 0 0 0 0 127 0" result="hardAlpha"/>
<feOffset dx="5" dy="5"/>
<feGaussianBlur stdDeviation="5"/>
<feColorMatrix type="matrix" values="0 0 0 0 0.0627451 0 0 0 0 0.439216 0 0 0 0 0.694118 0 0 0 0.2 0"/>
<feBlend mode="normal" in2="BackgroundImageFix" result="effect1_dropShadow"/>
<feBlend mode="normal" in="SourceGraphic" in2="effect1_dropShadow" result="shape"/>
</filter>
<filter id="filter6_d" x="271" y="364" width="174" height="83" filterUnits="userSpaceOnUse" color-interpolation-filters="sRGB">
<feFlood flood-opacity="0" result="BackgroundImageFix"/>
<feColorMatrix in="SourceAlpha" type="matrix" values="0 0 0 0 0 0 0 0 0 0 0 0 0 0 0 0 0 0 127 0" result="hardAlpha"/>
<feOffset dy="4"/>
<feGaussianBlur stdDeviation="5"/>
<feColorMatrix type="matrix" values="0 0 0 0 0.435294 0 0 0 0 0.811765 0 0 0 0 0.592157 0 0 0 0.2 0"/>
<feBlend mode="normal" in2="BackgroundImageFix" result="effect1_dropShadow"/>
<feBlend mode="normal" in="SourceGraphic" in2="effect1_dropShadow" result="shape"/>
</filter>
<linearGradient id="paint0_linear" x1="375.616" y1="-62.3187" x2="337.792" y2="608.507" gradientUnits="userSpaceOnUse">
<stop stop-color="#D1ECFF"/>
<stop offset="1" stop-color="#1070B1"/>
</linearGradient>
<linearGradient id="paint1_linear" x1="559.735" y1="224.576" x2="507.964" y2="258.395" gradientUnits="userSpaceOnUse">
<stop stop-color="#FFF8E1"/>
<stop offset="1" stop-color="#FFCC80"/>
</linearGradient>
<linearGradient id="paint2_linear" x1="585.978" y1="241.241" x2="585.978" y2="318.5" gradientUnits="userSpaceOnUse">
<stop stop-color="#AF6CED"/>
<stop offset="1" stop-color="#5E199D"/>
</linearGradient>
<linearGradient id="paint3_linear" x1="633.728" y1="301.5" x2="633.728" y2="411.5" gradientUnits="userSpaceOnUse">
<stop stop-color="#EB5757"/>
<stop offset="1" stop-color="#872727"/>
</linearGradient>
<linearGradient id="paint4_linear" x1="575.716" y1="231.146" x2="557.595" y2="238.755" gradientUnits="userSpaceOnUse">
<stop stop-color="#FFF8E1"/>
<stop offset="1" stop-color="#FFCC80"/>
</linearGradient>
<linearGradient id="paint5_linear" x1="588.276" y1="291.08" x2="576.596" y2="312.359" gradientUnits="userSpaceOnUse">
<stop stop-color="#FFF8E1"/>
<stop offset="1" stop-color="#FFCC80"/>
</linearGradient>
<linearGradient id="paint6_linear" x1="193.393" y1="331.155" x2="498.893" y2="364.655" gradientUnits="userSpaceOnUse">
<stop offset="0.127122" stop-color="white"/>
<stop offset="0.972261" stop-color="white" stop-opacity="0.8"/>
</linearGradient>
<clipPath id="clip0">
<rect width="24" height="18.0012" fill="white" transform="translate(369 94.0118)"/>
</clipPath>
<clipPath id="clip1">
<rect width="48" height="48" fill="white" transform="translate(296 295)"/>
</clipPath>
</defs>
</svg>
