<svg version="1.0" xmlns="http://www.w3.org/2000/svg" width="682.667" height="682.667" viewBox="0 0 512 512"><path d="M51.4 1.5C25.3 7.2 5.5 27.9.9 54.4c-2.4 14.2 1.3 32.3 9.2 44.7 2.9 4.6 25.3 27.7 79.2 81.6l75.2 75.3-75.2 75.2c-53.9 54-76.3 77.1-79.2 81.7C-.7 429.7-2.7 452.2 4.7 471c15.1 38.1 62 52.7 96 29.9 2.6-1.7 38.7-37 80-78.3l75.3-75.1 75.3 75.2c53.9 53.9 77 76.3 81.6 79.2 10.4 6.6 20.4 9.4 34.1 9.5 8.5.1 13.1-.4 17.5-1.8 23.9-7.3 41-25.8 46.1-49.8 3.2-14.8-.3-33.8-8.7-46.9-2.9-4.6-25.3-27.7-79.2-81.7L347.5 256l75.2-75.3c53.9-53.9 76.3-77 79.2-81.6 6.6-10.4 9.4-20.4 9.5-34.1.1-16.4-4.2-28.9-13.9-40.8C476-1.9 439-7.5 411.3 11.1c-2.6 1.7-38.7 37-80 78.3L256 164.5l-75.3-75.1c-41.3-41.3-77.4-76.6-80-78.3C86.6 1.6 67.8-2.1 51.4 1.5zm29.1 30.9c5.3 2.5 15.9 12.7 87.5 84.1 86.4 86.2 83.5 83.6 91.3 82 2.6-.6 19.5-16.9 84.7-81.9 76.4-76.1 81.9-81.4 88-84.2 5.6-2.5 7.7-2.9 15.5-2.9 8.2 0 9.7.3 15.7 3.3 7.4 3.6 12.9 9.1 16.8 16.8 2.2 4.3 2.5 6.2 2.5 14.9 0 17.3 5.9 10.3-86.5 103-44.4 44.5-81.3 82-81.9 83.2-1.4 2.8-1.4 7.8 0 10.6.6 1.2 37.5 38.6 81.9 83.2 92.1 92.4 86.5 85.8 86.5 102.5 0 8.2-.4 10.3-2.6 15.1-3.7 7.9-9 13.3-16.7 17.1-6 3-7.5 3.3-15.7 3.3-7.8 0-9.9-.4-15.5-2.9-6.1-2.8-11.6-8-87.5-83.7-44.5-44.4-82-81.2-83.2-81.8-2.8-1.4-7.8-1.4-10.6 0-1.2.6-38.6 37.4-83.2 81.8-75.9 75.7-81.4 80.9-87.5 83.7-5.6 2.5-7.7 2.9-15.5 2.9-8.2 0-9.7-.3-15.7-3.3-7.4-3.6-12.9-9.1-16.8-16.8-2.1-4.2-2.5-6.2-2.5-14.4 0-17-6.8-8.9 85-101 44.7-44.8 82-82.9 82.9-84.7 2-4.1 2-8.5 0-12.6-.9-1.8-38.2-39.9-82.9-84.7-91.8-92.1-85-84-85-101 0-8.1.4-10.2 2.5-14.3 3.4-6.7 8.1-12 14-15.6 6.9-4.2 10.3-5 20-4.8 7.1.2 9.5.7 14.5 3.1z" fill="#5A98D0"/></svg>