<svg width="192" height="132" fill="none" xmlns="http://www.w3.org/2000/svg"><path d="M191.995 66a66.476 66.476 0 01-9.592 34.377 65.762 65.762 0 01-27.839 25.275 62.77 62.77 0 01-6.489 2.683 65.182 65.182 0 01-49.145-2.469 65.651 65.651 0 01-27.323-23.914A66.372 66.372 0 0161.11 68.967a66.445 66.445 0 017.52-33.801A65.794 65.794 0 0192.095 9.859 65.095 65.095 0 01125.042.017a65.056 65.056 0 0133.354 8.333 65.727 65.727 0 0124.574 24.215 66.423 66.423 0 019.025 33.425V66z" fill="url(#paint0_linear)"/><path d="M100.854 106.742l-7.231-11.387s20.031-23.344 22.036-24.723c0 0-10.104 17.088-14.805 36.11z" fill="url(#paint1_linear)"/><path d="M93.623 95.355L79.99 107.572 54.91 95.355l-19.188 1.06s11.951 4.071 15.314 3.903l3.368-.168s20.597 20.02 25.333 21.547c4.737 1.527 20.294-10.445 20.294-10.445l.903-4.474-7.311-11.423z" fill="url(#paint2_linear)"/><path d="M131.241 67.868a18.402 18.402 0 01-6.024 1.751c-2.419.367-6.095-.987-6.095-.987 2.777-2.204 2.131-7.402 2.131-7.402l.06-.03c2.964-.23 5.444-1.924 7.176-3.563-.626 4.449 2.752 10.231 2.752 10.231z" fill="url(#paint3_linear)"/><path d="M131.241 51.315v3.054a18.634 18.634 0 01-2.747 3.252c-1.732 1.645-4.211 3.34-7.175 3.564a9.022 9.022 0 01-3.959-.586c-8.079-3.054-2.398-19.215-2.398-19.215 2.565-6.577 14.178-3.396 14.178-3.396 1.555 1.868 1.853 7.086 1.793 7.595a10.075 10.075 0 01-1.01 2.036s2.207-2.097 2.964-.702c.757 1.394-1.646 4.398-1.646 4.398z" fill="url(#paint4_linear)"/><path d="M131.241 54.379v-3.054s2.398-2.978 1.641-4.383c-.757-1.405-2.964.703-2.964.703.412-.638.751-1.321 1.01-2.037.06-.508-.192-5.43-1.793-7.594 0 0-11.613-3.181-14.178 3.395 0 0-3.323-.85-6.186-4.836-4.681-6.52.909-7.32 6.448-6.062 6.721 1.527 13.457-3.482 21.157 1.608 7.7 5.09.798 16.66-5.135 22.26z" fill="#262F72"/><g filter="url(#filter0_d)"><path d="M78.384 25.96H12.868c-1.584 0-2.868 1.295-2.868 2.892V89.75c0 1.597 1.284 2.891 2.868 2.891h65.516c1.584 0 2.868-1.294 2.868-2.891v-60.9c0-1.596-1.284-2.89-2.868-2.89z" fill="#fff"/></g><path d="M20.912 38.044a1.54 1.54 0 01-.677.448c-.312.11-.64.163-.97.158a1.912 1.912 0 01-.98-.244 1.634 1.634 0 01-.65-.713 2.531 2.531 0 01-.238-1.1v-.295a2.7 2.7 0 01.217-1.125c.131-.3.35-.554.627-.727a2.051 2.051 0 012.156.117c.3.277.482.663.505 1.074h-.864a.868.868 0 00-.262-.545.833.833 0 00-.556-.173.782.782 0 00-.692.341c-.177.308-.26.663-.237 1.018v.275c-.022.358.068.714.258 1.018a.885.885 0 00.752.351c.256.023.51-.054.712-.213v-.749h-.808v-.656h1.697l.01 1.74z" fill="#64B5F6"/><path d="M72.83 34.191H26.406a1.03 1.03 0 00-1.025 1.033v3.757c0 .57.459 1.033 1.025 1.033H72.83a1.03 1.03 0 001.025-1.033v-3.757a1.03 1.03 0 00-1.025-1.033z" fill="#E7EEF2"/><path d="M73.855 43.303H25.38v1.018h48.474v-1.018z" fill="#BBDEFB"/><path d="M73.855 45.593H25.38v1.018h48.474v-1.018zm0 2.291H25.38v1.018h48.474v-1.018zm0 2.29H25.38v1.019h48.474v-1.019z" fill="#E7E8E9"/><path d="M73.855 54.46H25.38v1.018h48.474V54.46z" fill="#BBDEFB"/><path d="M73.855 56.751H25.38v1.018h48.474v-1.018zm0 2.291H25.38v1.018h48.474v-1.018zm0 2.29H25.38v1.018h48.474v-1.018z" fill="#E7E8E9"/><path d="M73.855 65.491H25.38v1.018h48.474v-1.018z" fill="#BBDEFB"/><path d="M73.855 67.782H25.38V68.8h48.474v-1.018zm0 2.29H25.38v1.018h48.474v-1.018zm0 2.291H25.38v1.018h48.474v-1.018z" fill="#E7E8E9"/><path d="M73.855 76.522H25.38v1.017h48.474v-1.017z" fill="#BBDEFB"/><path d="M73.855 78.812H25.38v1.018h48.474v-1.018zm0 2.291H25.38v1.018h48.474v-1.018zm0 2.29H25.38v1.018h48.474v-1.018z" fill="#E7E8E9"/><path d="M148.707 92.46c3.454 10.363 6.014 22.36 7.761 32.241-.626.331-1.262.646-1.904.952a62.77 62.77 0 01-6.488 2.682 61.329 61.329 0 01-4.641 1.436 65.186 65.186 0 01-44.505-3.905 63.508 63.508 0 01-1.702-.829 1824.822 1824.822 0 015.232-26.118c2.893-13.892 7.044-21.456 10.472-25.553l.035-.041a21.533 21.533 0 012.111-2.189.432.432 0 01.071-.066c.171-.153.343-.295.505-.433 2.065-1.695 3.469-2.005 3.469-2.005l.126.045h.071c1.096.436 2.246.722 3.418.85h.227c.749.073 1.502.085 2.252.036h.046a14.267 14.267 0 005.948-1.73 21.595 21.595 0 016.004 3.12c5.221 3.863 15.739 18.03 15.739 18.03l-4.247 3.476z" fill="url(#paint5_linear)"/><path d="M167.939 111.802c-.03 1.415-1.307 4.286-3.176 7.768a64.995 64.995 0 01-8.301 5.131c-.626.33-1.262.646-1.904.951a62.77 62.77 0 01-6.488 2.683l4.878-15.673L140.324 99.3l8.377-6.841 4.247-3.466s15.123 17.337 14.991 22.809z" fill="url(#paint6_linear)"/><defs><linearGradient id="paint0_linear" x1="126.788" y1="7.167" x2="124.512" y2="137.263" gradientUnits="userSpaceOnUse"><stop stop-color="#fff" stop-opacity="0"/><stop offset="1" stop-color="#64B5F6" stop-opacity=".6"/></linearGradient><linearGradient id="paint1_linear" x1="106.231" y1="68.209" x2="102.384" y2="103.452" gradientUnits="userSpaceOnUse"><stop stop-color="#42A5F5"/><stop offset="1" stop-color="#1565C0"/></linearGradient><linearGradient id="paint2_linear" x1="62.534" y1="105.322" x2="104.455" y2="110.833" gradientUnits="userSpaceOnUse"><stop stop-color="#FFE082"/><stop offset="1" stop-color="#FFA726"/></linearGradient><linearGradient id="paint3_linear" x1="9417.78" y1="2544.52" x2="9420.77" y2="2315.66" gradientUnits="userSpaceOnUse"><stop stop-color="#FFE082"/><stop offset="1" stop-color="#FFA726"/></linearGradient><linearGradient id="paint4_linear" x1="14987.3" y1="4075.82" x2="15780.5" y2="4075.82" gradientUnits="userSpaceOnUse"><stop stop-color="#FFE082"/><stop offset="1" stop-color="#FFA726"/></linearGradient><linearGradient id="paint5_linear" x1="42948.6" y1="15103.6" x2="48847.7" y2="20773.6" gradientUnits="userSpaceOnUse"><stop stop-color="#42A5F5"/><stop offset="1" stop-color="#1565C0"/></linearGradient><linearGradient id="paint6_linear" x1="23009.9" y1="12265.9" x2="22606.5" y2="9747.27" gradientUnits="userSpaceOnUse"><stop stop-color="#FFE082"/><stop offset="1" stop-color="#FFA726"/></linearGradient><filter id="filter0_d" x="0" y="19.96" width="91.252" height="86.682" filterUnits="userSpaceOnUse" color-interpolation-filters="sRGB"><feFlood flood-opacity="0" result="BackgroundImageFix"/><feColorMatrix in="SourceAlpha" values="0 0 0 0 0 0 0 0 0 0 0 0 0 0 0 0 0 0 127 0" result="hardAlpha"/><feOffset dy="4"/><feGaussianBlur stdDeviation="5"/><feColorMatrix values="0 0 0 0 0 0 0 0 0 0 0 0 0 0 0 0 0 0 0.15 0"/><feBlend in2="BackgroundImageFix" result="effect1_dropShadow"/><feBlend in="SourceGraphic" in2="effect1_dropShadow" result="shape"/></filter></defs></svg>