<svg width="171" height="132" fill="none" xmlns="http://www.w3.org/2000/svg"><path d="M171 66.5a65.142 65.142 0 01-9.68 34.116 65.915 65.915 0 01-26.173 24.14 42.54 42.54 0 01-1.468.727l-.102.051-.351.167a64.15 64.15 0 01-6.548 2.662c-1.101.38-2.214.732-3.338 1.056l-1.345.368a66.803 66.803 0 01-44.914-3.874 67.422 67.422 0 01-1.717-.824l-1.02-.505a66.14 66.14 0 01-24.846-22.434 54.879 54.879 0 01-1.865-3.031c-.527-.9-1.036-1.81-1.529-2.733A64.777 64.777 0 0138.843 66.5c0-1.226.034-2.445.102-3.657C39.9 45.81 47.52 29.82 60.185 18.27 72.849 6.723 89.559.528 106.759 1.005c17.201.476 33.535 7.586 45.529 19.818 11.995 12.23 18.702 28.618 18.697 45.677H171z" fill="url(#paint0_linear)"/><path d="M91.945 64.171s-14.778-6.946-16.062-16.504c-1.284-9.557-.382-18.69 6.981-21.247 0 0 4.658-14.72 21.168-8.805 16.51 5.915 13.906 23.677 22.931 25.804 9.024 2.127 25.876-6.83 29.091 4.097s-7.358 10.26-14.385 19.535 3.827 14.144 1.839 20.53c-1.987 6.385-9.493 10.775-9.493 10.775L91.945 64.17z" fill="url(#paint1_linear)"/><path d="M71.71 85.136l4.173 11.25h.454l6.528-29.335C78.742 70.632 71.71 85.136 71.71 85.136z" fill="url(#paint2_linear)"/><path d="M64.382 100.654l-2.645 1.319c-3.281 1.95-8.183 1.394-8.183 1.394 2.65 2.955 17.57 6.3 21.763 6.214l.775-10.467h-9.294l-2.416 1.54z" fill="url(#paint3_linear)"/><path d="M133.679 125.468l-.102.051-.351.166a64.15 64.15 0 01-6.548 2.663c-1.101.38-2.214.732-3.338 1.055l-1.345.369a66.802 66.802 0 01-44.914-3.874 67.422 67.422 0 01-1.717-.824l-1.02-.505c.143-4.334.363-9.522.684-14.993.203-3.42.453-6.951.749-10.457.076-.915.158-1.824.24-2.733 1.202-12.922 3.128-24.905 6.216-28.714l.046-.05a3.154 3.154 0 011.58-1.137c4.458-1.05 7.602-1.404 8.097-2.314.494-.91 0-2.697 0-2.697l.886-.122c1.29-.192 3.791-.596 6.16-1.202a.075.075 0 00.047 0c2.094-.54 4.076-1.238 5.044-2.076l1.988 5.238s14.945-1.874 20.78 3.759a.56.56 0 01.097.09c.061.056.119.115.173.178.347.364.656.761.922 1.187 1.901 3.03 3.246 15.195 4.179 28.39.214 3.031.408 6.163.576 9.23.387 7.082.677 13.942.871 19.322z" fill="url(#paint4_linear)"/><path opacity=".15" d="M133.577 125.534l-.351.167a64.17 64.17 0 01-6.548 2.662 67.4 67.4 0 01-3.338 1.056c-6.884-7.27-9.615-16.706-9.615-16.706l19.073-6.567.779 19.388z" fill="#000"/><path d="M126.856 67.05c6.904 6.72 8.407 20.824 7.134 31.321-1.274 10.497-3.639 20.328-8.551 20.025-4.912-.303-21.912-11.993-28.48-18.368l3.837-7.3 13.881 5.734V83.181l12.179-16.13z" fill="url(#paint5_linear)"/><path d="M126.856 67.05c6.904 6.72 8.407 20.824 7.134 31.321-1.274 10.497-3.639 20.328-8.551 20.025-4.912-.303-21.912-11.993-28.48-18.368l3.837-7.3 13.881 5.734V83.181l12.179-16.13z" fill="url(#paint6_linear)"/><g filter="url(#filter0_d)"><path d="M91.145 96.386h-63.69v2.733h63.69v-2.733z" fill="url(#paint7_linear)"/><path d="M63.435 62.843H15l12.454 33.543h48.43l-12.45-33.543z" fill="url(#paint8_linear)"/></g><path d="M41.997 99.119s8.357 4.147 13.667 4.248c5.31.101 11.139-4.248 11.139-4.248H41.997z" fill="url(#paint9_linear)"/><path d="M100.796 92.728s-7.348-3.677-10.512-4.081c-3.165-.405-12.99 7.739-12.99 7.739h13.861l5.82 3.642 3.821-7.3z" fill="url(#paint10_linear)"/><path d="M103.471 49.789c.037 2.766.241 5.528.612 8.27-3.287 1.833-7.134 2.819-11.251 3.298l-.24-3.298-.143-2.021v-.066a6.123 6.123 0 01-2.303-.505c-4.973-2.127-6.043-12.523-6.043-12.523 1.992-.08 4.586-3.642 4.586-3.642 1.452 2.202 8.189 6.456 12.097 5.314 3.908-1.142 3.603-3.874 3.603-3.874a4.185 4.185 0 011.767 1.394 4.13 4.13 0 01.78 2.101c.209 2.667-3.465 5.552-3.465 5.552z" fill="url(#paint11_linear)"/><path opacity=".15" d="M100.134 52.724c-.922 1.546-5.095 4.006-7.536 5.345l-.143-2.02c.153 0 .3-.051.443-.082a16.907 16.907 0 005.703-2.111 8.898 8.898 0 001.462-1.071l.071-.06zm8.815 43.379l10.813 4.385-5.095-3.642v-13.64s-1.595 11.851-5.718 12.897z" fill="#000"/><defs><linearGradient id="paint0_linear" x1="105.193" y1="8.094" x2="102.971" y2="137.225" gradientUnits="userSpaceOnUse"><stop stop-color="#fff" stop-opacity="0"/><stop offset="1" stop-color="#64B5F6" stop-opacity=".6"/></linearGradient><linearGradient id="paint1_linear" x1="75.399" y1="57.281" x2="156.655" y2="57.281" gradientUnits="userSpaceOnUse"><stop stop-color="#EF9A9A"/><stop offset="1" stop-color="#D81B60"/></linearGradient><linearGradient id="paint2_linear" x1="76.683" y1="82.883" x2="74.274" y2="110.514" gradientUnits="userSpaceOnUse"><stop stop-color="#7E57C2"/><stop offset="1" stop-color="#4527A0"/></linearGradient><linearGradient id="paint3_linear" x1="6813.02" y1="2527.43" x2="6789.49" y2="3103.43" gradientUnits="userSpaceOnUse"><stop stop-color="#7E57C2"/><stop offset="1" stop-color="#4527A0"/></linearGradient><linearGradient id="paint4_linear" x1="20341.2" y1="14858" x2="24468.7" y2="22492.9" gradientUnits="userSpaceOnUse"><stop stop-color="#7E57C2"/><stop offset="1" stop-color="#4527A0"/></linearGradient><linearGradient id="paint5_linear" x1="13960.4" y1="9770.53" x2="17624.5" y2="15926.1" gradientUnits="userSpaceOnUse"><stop stop-color="#7E57C2"/><stop offset="1" stop-color="#4527A0"/></linearGradient><linearGradient id="paint6_linear" x1="118.758" y1="72.749" x2="113.038" y2="119.812" gradientUnits="userSpaceOnUse"><stop offset=".14" stop-color="#7E57C2" stop-opacity="0"/><stop offset=".26" stop-color="#724DBB" stop-opacity=".21"/><stop offset=".48" stop-color="#5F3DAF" stop-opacity=".55"/><stop offset=".66" stop-color="#5131A7" stop-opacity=".79"/><stop offset=".81" stop-color="#482AA2" stop-opacity=".94"/><stop offset=".91" stop-color="#4527A0"/></linearGradient><linearGradient id="paint7_linear" x1="27.454" y1="97.75" x2="91.145" y2="97.75" gradientUnits="userSpaceOnUse"><stop stop-color="#D2D4D5"/><stop offset="1" stop-color="#AAACAE"/></linearGradient><linearGradient id="paint8_linear" x1="537.989" y1="4198.71" x2="4142.02" y2="8332.05" gradientUnits="userSpaceOnUse"><stop stop-color="#D2D4D5"/><stop offset="1" stop-color="#AAACAE"/></linearGradient><linearGradient id="paint9_linear" x1="43.577" y1="94.557" x2="63.884" y2="103.338" gradientUnits="userSpaceOnUse"><stop stop-color="#FFF8E1"/><stop offset="1" stop-color="#FFCC80"/></linearGradient><linearGradient id="paint10_linear" x1="7875.06" y1="2941.73" x2="8393.29" y2="3509.97" gradientUnits="userSpaceOnUse"><stop stop-color="#FFF8E1"/><stop offset="1" stop-color="#FFCC80"/></linearGradient><linearGradient id="paint11_linear" x1="8044.47" y1="3227.22" x2="8499.41" y2="4088.69" gradientUnits="userSpaceOnUse"><stop stop-color="#FFF8E1"/><stop offset="1" stop-color="#FFCC80"/></linearGradient><filter id="filter0_d" x="0" y="47.843" width="116.145" height="76.276" filterUnits="userSpaceOnUse" color-interpolation-filters="sRGB"><feFlood flood-opacity="0" result="BackgroundImageFix"/><feColorMatrix in="SourceAlpha" values="0 0 0 0 0 0 0 0 0 0 0 0 0 0 0 0 0 0 127 0" result="hardAlpha"/><feOffset dx="5" dy="5"/><feGaussianBlur stdDeviation="10"/><feColorMatrix values="0 0 0 0 0 0 0 0 0 0 0 0 0 0 0 0 0 0 0.2 0"/><feBlend in2="BackgroundImageFix" result="effect1_dropShadow"/><feBlend in="SourceGraphic" in2="effect1_dropShadow" result="shape"/></filter></defs></svg>