<svg width="688" height="624" fill="none" xmlns="http://www.w3.org/2000/svg"><path opacity=".4" d="M624.607 75.41C479.832 6.517 415.969 194.91 316.138 225.906c-99.744 45.347-195.923-7.73-255.31 37.768-94.134 72.12-52.818 198.289 7.446 251.376 86.42 76.13 239.998 48.73 398.738-33.588C665.894 378.329 751.55 135.817 624.607 75.41z" fill="#98C3E8"/><path opacity=".2" d="M143.5 150.5c5 12.5-10 32-31.5 38.5-18.5 5.593-36.5 5-41.5-8-4.423-11.5 9.5-24 25.5-30.5s42.5-12.5 47.5 0zM307 125c-3.891-9.94 9.816-33.134 26.802-38.201 14.617-4.36 28.309-14.635 32.198-4.299 3.44 9.144-7.091 29.825-19.74 34.915-12.648 5.09-35.369 17.525-39.26 7.585zm-11.208 492.215c-3.891-9.939 8.024-25.349 25.01-30.416 14.617-4.361 28.812-3.814 32.701 6.522 3.441 9.144-7.595 19.004-20.243 24.094s-33.576 9.74-37.468-.2zm175.781-50.665c-8.095-19.03 17.706-61.315 53-71 30.369-8.334 79.409 8.71 87.499 28.5 7.157 17.505-39.719 14.61-65.998 24.343-26.279 9.733-66.407 37.186-74.501 18.157z" fill="#98C3E8"/><mask id="a" style="mask-type:alpha" maskUnits="userSpaceOnUse" x="20" y="64" width="648" height="490"><path d="M606.962 76.944C466.39 14.87 410.042 197.48 315.141 230.024c-94.447 46.315-188.023-1.94-243.777 43.392-88.377 71.856-45.503 191.801 13.642 241.07 84.818 70.653 231.336 40.058 381.384-43.393C654.38 366.539 730.22 131.374 606.962 76.944z" fill="#98C3E8"/></mask><g mask="url(#a)"><path fill="url(#paint0_linear)" d="M-85.083-16.598h805.162v681.485H-85.083z"/><path d="M16.509 200.467c73.827 37.23 156.489 141.437 156.489 191.195 0 61.207-129.777 155.016-189.302 208.231l507.959 32.812c-18.089-80.979-63.761-261.005-35.967-300.989 35.967-51.742 181.519-39.122 263.128-29.657l22.086-230.317c-39.754 16.617-128.725 64.363-177.313 51.743-44.974-11.682-131.249-62.05-167.847-94.02" stroke="#fff" stroke-opacity=".2" stroke-width="15"/><path d="M206.441 143.677c20.193 105.167 75.09 297.96 133.142 227.792 72.566-87.709 129.987-201.29 184.254-126.2 43.413 60.071 107.27 178.574 133.773 230.316" stroke="#fff" stroke-opacity=".2" stroke-width="15"/><path fill-rule="evenodd" clip-rule="evenodd" d="M434 205a8 8 0 11-16 0 8 8 0 0116 0zM103 378a8 8 0 100-16 8 8 0 000 16zm174 102a8 8 0 100-16 8 8 0 000 16zm274-118a8 8 0 100-16 8 8 0 000 16z" fill="#fff" fill-opacity=".6"/><circle cx="73" cy="457" r="18" stroke="#fff" stroke-opacity=".4" stroke-width="8"/><circle cx="653" cy="180" r="18" stroke="#fff" stroke-opacity=".4" stroke-width="8"/><circle cx="403" cy="413" r="18" stroke="#fff" stroke-opacity=".4" stroke-width="8"/></g><g filter="url(#filter0_d)"><rect x="453" y="134" width="88" height="88" rx="10" fill="#fff"/></g><path d="M493 194v-12h8v12h10v-16h6l-20-18-20 18h6v16h10z" fill="#5A98D0"/><g filter="url(#filter1_d)"><path d="M440.423 10.756h-27.431c-3.785 0-6.853 2.286-6.853 5.106v20.433c0 2.82 3.068 5.105 6.853 5.105h27.431c3.785 0 6.854-2.285 6.854-5.105V15.862c0-2.82-3.069-5.106-6.854-5.106z" fill="#56CCF2"/></g><path d="M437 25.007h-4.17l3.24-2.43-1.41-1.065-4.66 3.495h-2v-1.5l4.66-3.495-1.42-1.058-3.24 2.43v-3.127h-2v3.128l-3.24-2.43-1.42 1.057 4.66 3.495v1.5h-2l-4.66-3.495-1.41 1.065 3.24 2.43H417v1.5h4.17l-3.24 2.43 1.41 1.066 4.66-3.495h2v1.5l-4.66 3.495 1.42 1.057 3.24-2.43v3.128h2V30.13l3.24 2.43 1.42-1.057-4.66-3.495v-1.5h2l4.66 3.495 1.41-1.065-3.24-2.43H437v-1.5z" fill="#fff"/><g filter="url(#filter2_d)"><path d="M614.284 88.011h-27.43c-3.785 0-6.854 2.286-6.854 5.106v20.433c0 2.82 3.069 5.106 6.854 5.106h27.43c3.786 0 6.854-2.286 6.854-5.106V93.117c0-2.82-3.068-5.106-6.854-5.106z" fill="#F2C94C"/></g><path d="M610 100.762c0-3.75-4-6.75-9-6.75s-9 3-9 6.75c0 2.325 1.6 4.426 4 5.626v1.875c0 .975.8 1.8 2 2.1v.15c0 1.275 1.3 2.25 3 2.25s3-.975 3-2.25v-.15c1.2-.3 2-1.125 2-2.1v-1.875c2.4-1.2 4-3.301 4-5.626zm-16 0c0-2.925 3.1-5.25 7-5.25s7 2.325 7 5.25c0 2.625-2.6 4.801-6 5.176v-1.876l1.7-1.275c.4-.3.4-.75 0-1.05-.4-.3-1-.3-1.4 0l-1.3.975-1.3-.975c-.4-.3-1-.3-1.4 0-.4.3-.4.75 0 1.05l1.7 1.275v1.876c-3.4-.375-6-2.551-6-5.176zm7 10.501c-.6 0-1-.3-1-.75h2c0 .45-.4.75-1 .75zm3-3c0 .45-.4.75-1 .75h-4c-.6 0-1-.3-1-.75v-1.125c.9.225 1.9.375 3 .375s2.1-.15 3-.375v1.125z" fill="#fff"/><g filter="url(#filter3_d)"><path d="M394.284 88.011h-27.43c-3.785 0-6.854 2.286-6.854 5.106v20.433c0 2.82 3.069 5.105 6.854 5.105h27.43c3.786 0 6.854-2.285 6.854-5.105V93.117c0-2.82-3.068-5.106-6.854-5.106z" fill="#F58A8A"/></g><g clip-path="url(#clip0)"><path d="M387 100.012h-1v-1.5c0-2.07-2.24-3.75-5-3.75s-5 1.68-5 3.75v1.5h-1c-1.1 0-2 .675-2 1.5v7.501c0 .825.9 1.5 2 1.5h12c1.1 0 2-.675 2-1.5v-7.501c0-.825-.9-1.5-2-1.5zm-6 6.751c-1.1 0-2-.675-2-1.5 0-.826.9-1.501 2-1.501s2 .675 2 1.501c0 .825-.9 1.5-2 1.5zm3.1-6.751h-6.2v-1.5c0-1.282 1.39-2.325 3.1-2.325 1.71 0 3.1 1.043 3.1 2.325v1.5z" fill="#fff"/></g><g filter="url(#filter4_d)"><path d="M568.284 10.756h-27.43c-3.785 0-6.854 2.286-6.854 5.106v20.433c0 2.82 3.069 5.105 6.854 5.105h27.43c3.786 0 6.854-2.285 6.854-5.105V15.862c0-2.82-3.068-5.106-6.854-5.106z" fill="#6FCF97"/></g><path d="M560.311 21.93h-16.332v7.655h16.332V21.93zm4.402 1.523l-3.605 1.136v2.369l3.605 1.136h1.307v-4.641h-1.307z" fill="#fff"/><path d="M500.39 217c-1.116 4.364.397 6.88 1.588 7.5 2.362 1.23 4.999 2.77 4.999 2.77s16.429 28.144 21.191 30.159c5.556 2.349 18.254 3.571 18.254 3.571l5.556-11.111s-12.699-2.778-18.254-3.968c-3.744-.803-20.238-18.651-20.238-18.651l3.174-5.556h-5.952c-4.365-3.174-6.731-9.714-6.731-9.714s-2.824 2.02-3.587 5z" fill="url(#paint1_linear)"/><path d="M565.478 267.5c-2-2-13.5-5.167-19-6.5l5.5-11c2.166 0 8.5-.5 16.5-2.5 10-2.5 13.5-11.5 25-2 9.2 7.6 25.166 40.833 32 56.5-10.747 10.243-17.884 13.569-32 16.5-.834-1.667-3.3-7.3-6.5-16.5-4-11.5-16.5-11.5-18.5-15.5s-.5-16.5-3-19z" fill="url(#paint2_linear)"/><path d="M601.478 381c-3.6-8-3.667-46-5-63.5 12.193-2.397 18.633-5.484 29-16 0 0 17 8 16 26.5s6.52 27.841 11 34c4 5.5 13.5 17.167 18.5 25l-5 9.5c-5.5-5.833-21.6-17.7-30-24.5-8.4-6.8-11.167-23.833-12.5-33-.834 9.667-5 27.4-3 33 2 5.6 23.5 22.5 32 31l-3 8.5c-14.5-6.833-44.4-22.5-48-30.5z" fill="url(#paint3_linear)"/><path d="M559.477 233.5c.4-1.6-.166-6.333.501-8 4.8.8 7.499 4.167 8.499 5.5 1-.167 2.435-.631 3 .5.5 1 0 3-1.5 4.5l3.5 9.5c-1.658 1.077-2.668 1.439-4.5 2 1-2.5.5-4.5 0-5.5-3.6 2.8-5 2.667-6.5 2.5l-1.5-6.5-2.499.5c.5-.833.599-3.4.999-5z" fill="url(#paint4_linear)"/><path d="M568.477 231c-2-2.8-6.833-4.833-9-5.5-4-3-2-9.5 7.5-12.5s13.5 5 15.5 7 3 8.5 12 12.5 8.5-1 14-1 8 3.5 7 6.5-1.5 6.5 4.5 10.5.5 9.5 0 15.5-8.5 3-17 3-7 0-8.5-5.5-4-7.5-7-9-10-.5-11.5-2c-1.2-1.2-4.5-10.167-6-14.5.667-1 1.9-3.3 1.5-4.5-.4-1.2-2.167-.833-3-.5z" fill="#F2994A"/><path d="M549.478 291.5l24-1.5c2.8.4 7.5 3.833 9.5 5.5-.667 1.5-2.6 4.5-5 4.5s-20-3-28.5-4.5h-2V288l2 3.5z" fill="url(#paint5_linear)"/><path d="M547.478 299v-17h-8.5v17h8.5z" fill="#F2C94C"/><path d="M665.978 425.5c-2.4-.4-12.167-9.667-16.5-14l3-8.5c2 .833 6.2 2.3 7 3.5 1 1.5 9.5 19.5 6.5 19zm12-11c-1.2-2-8.5-11.667-12-18l5-9.5c2.333 2 2.5 2 5 5.5 1.162 1.627 3.5 24.5 2 22z" fill="#5A98D0"/><path opacity=".2" d="M626.478 324.5l-3 15c.5 5.5 3.5 19 8.5 28.5-6-19-4-33.167-5.5-43.5z" fill="#000"/><path d="M196 549l-1.5-5 8-1.5c3.833 2 11.2 6.4 10 8-.4.8-11.167-.667-16.5-1.5zm-40.5-47l4.5 7.5c-.333 5.167-1.4 15.3-3 14.5-1.6-.8-6.667-13.667-9-20l7.5-2z" fill="#D06262"/><path d="M129.328 456.993c-5.329-5.535-10.172-15.969-11.927-20.493 5.128-2.481 16.523-8.148 21.083-10.978 4.56-2.829 13.209-9.248 16.963-12.104 2.19 1.974 8.563 6.844 16.534 10.53 20.471 9.665 32.164 22.147 36.204 33.324 3.233 8.941-10.01 22.177-17.534 27.722-4.359-7.408-6.982-10.404-12.15-17.46l1.756-8.196-10.324-3.067c1.526 2.036 6.528 8.739 14.325 19.269 14.07 17.585 18.942 47.632 19.62 60.457-2.625.576-9.088 1.639-13.941 1.282-.573-6.229-8.378-20.068-15.831-32.32-1.516 1.814-3.617 3.983-4.841 4.095-6.195-1.84-8.114-9.965-8.299-13.798l4.682-3.921a853.164 853.164 0 01-1.792-2.872c-7.663-12.35-27.866-24.551-34.528-31.47z" fill="#1F3F68"/><path d="M157.347 412.239c-14.534 11.212-44.619 31.318-48.685 22.052-5.082-11.583-4.086-11.675-6.896-14.931-2.81-3.257-3.497-10.725-4.768-13.621-.639-1.455-5.787-7.822-9.903-15.659 0 0-.123-.227-.332-.641-2.922-5.702-5.23-12.119-4.85-17.962.29-8.563 6.803-14.086 6.803-14.086 3.882-4.138 7.523-4.833 8.784-4.722l.023.016c3.035 2.064 7.522 5.115 9.111 4.969 1.594-.146 3.866-3.154 5.366-4.654 7.606.807 9.929-1.141 15.874-.331 7.331 1 27.126 11.331 42.626-16.169 1.54.361 5.011 1.729 7.5 1.5-8.5 25-16 32.781-23 35.231-5.372 1.881-9.605 2.405-12.948 2.371-.614 3.261-1.429 8.622-2.789 14.089 2.795 5.116 5.749 9.814 8.069 11.921 6.026 5.471 12.831 8.49 10.015 10.627z" fill="#fff"/><path d="M157.062 441.89l13.415 14.833 9.781 2.615-.584 4.573c2.245-2.884 5.123-9.81-1.328-14.439-6.451-4.628-16.877-6.983-21.284-7.582zm8.563 49.423l8.298 13.798-1.356 1.631c-1.225-2.398-4.441-4.613-7.159-6.873-2.175-1.808-2.631-4.947-2.587-6.29l2.804-2.266zm-38.558-75.285c-14.197-1.506-31.463-16.353-38.321-23.589 15.858 14.107 34.286 17.935 40.124 15.892 4.67-1.635 8.25-13.804 10.131-18.831l3.798 6.503c.672 7.303-1.534 21.531-15.732 20.025zm-5.1-28.151c-3.147.575-11.293-6.326-14.948-9.671C120.474 388.014 120.5 383 137.5 371c-.738 1.072-8 15.5-15.533 16.877z" fill="#000" fill-opacity=".2"/><path d="M142.5 373.5c-1.713-.344-3.204-.924-5-2.5l1.5-3.5c-.167-.833-.4-2.7 0-3.5.4-.8 2-1.667 2.5-2l-.5 2.5 2.5-3 4 3.5-.5 3.5-3 1.5-1.5 3.5zM179 333l-1 5c-1.6.4-5.833-.833-7.5-1.5.5-1.5 2.1-5.5 2.5-7.5.4-2 4.167-4.167 6-5h2l-2 3.5v5.5z" fill="#F2994A"/><path d="M95 342.5c.8 1.6 3 5 4 6.5.666-1.333 1.6-4.3 0-5.5-1.6-1.2-3-3.167-3.5-4 .5-.333 1.8-1 3-1-.8-6 3.333-8.167 5.5-8.5l8.5-.5.5 2.5c3.166-3 8.9-9.5 6.5-11.5-3-2.5-12 4-18 4s-8.5 3-10 6 2.5 10 3.5 12z" fill="#316099"/><path d="M106.5 358c-1.6 0-6.167-3.167-9-5 1.333-.667 2-3.2 2-4 0-1 1-5 0-5.5s-4-2.5-4-3.5c0-.8 2-1 3-1-.333-1.667-.4-5.5 2-7.5s9-2.167 12-2c.167.667.8 3.5 2 9.5s-1.5 8.833-3 9.5l.5 4.5c-1.167 1.5-3.9 5-5.5 5z" fill="#F2994A"/><path d="M202.5 542.5l-.5-6c-3.531.946-5.629 1.113-9.5 1l2 6.5 8-1.5zm-42.5-33l6-2c-2.678-3.077-3.579-4.832-4.5-8l-6 2.5 4.5 7.5z" fill="#98C3E8"/><rect opacity=".8" x="187" y="262" width="266.284" height="189.301" rx="5" fill="url(#paint6_linear)"/><path d="M187 267a5 5 0 015-5h71.983v189.301H192a5 5 0 01-5-5V267z" fill="#fff"/><circle cx="199" cy="274" r="4" fill="#FA9595"/><circle cx="212" cy="274" r="4" fill="#FDF397"/><circle cx="224" cy="274" r="4" fill="#C1FEBB"/><path opacity=".4" fill-rule="evenodd" clip-rule="evenodd" d="M196 368h58v7h-58v-7zm0 14h58v7h-58v-7zm39 16h-39v7h39v-7z" fill="#5A98D0"/><path opacity=".1" fill-rule="evenodd" clip-rule="evenodd" d="M373 287h58v7h-58v-7zm0 14h58v7h-58v-7zm39 16h-39v7h39v-7z" fill="#000"/><g filter="url(#filter5_d)"><rect x="179" y="288" width="81" height="50" rx="5" fill="#56CCF2"/></g><path d="M203.344 310.136c-.656-.896-1.584-1.344-2.8-1.344-1.104 0-2.032.4-2.816 1.216-.784.816-1.168 1.808-1.168 2.992 0 1.168.384 2.176 1.168 2.992.784.816 1.712 1.216 2.816 1.216 1.216 0 2.144-.448 2.8-1.36V317h1.728v-8h-1.728v1.136zm-4.336 4.704c-.48-.496-.72-1.104-.72-1.84s.24-1.344.72-1.824c.48-.496 1.088-.736 1.808-.736s1.328.24 1.808.736c.48.48.72 1.088.72 1.824s-.24 1.344-.72 1.84c-.48.48-1.088.72-1.808.72s-1.328-.24-1.808-.72zm13.07-9.248c-2.368-.144-3.616 1.056-3.616 3.248v.16h-1.216v1.664h1.216V317h1.728v-6.336h1.888V309h-1.888v-.16c0-1.168.624-1.696 1.888-1.584v-1.664zm3.539 3.408h-1.728v8h1.728v-4.032c0-.816.24-1.408.736-1.76.496-.368 1.072-.528 1.728-.48v-1.872c-1.2 0-2.032.496-2.464 1.488V309zm6.173-1.52c.448-.448.448-1.12.016-1.552a1.083 1.083 0 00-1.568 0c-.432.432-.432 1.104 0 1.552.448.432 1.12.432 1.552 0zm.096 9.52v-8h-1.728v8h1.728zm9.142-6.864c-.656-.896-1.584-1.344-2.8-1.344-1.104 0-2.032.4-2.816 1.216-.784.816-1.168 1.808-1.168 2.992 0 1.168.384 2.176 1.168 2.992.784.816 1.712 1.216 2.816 1.216 1.216 0 2.144-.448 2.8-1.36V317h1.728v-8h-1.728v1.136zm-4.336 4.704c-.48-.496-.72-1.104-.72-1.84s.24-1.344.72-1.824c.48-.496 1.088-.736 1.808-.736s1.328.24 1.808.736c.48.48.72 1.088.72 1.824s-.24 1.344-.72 1.84c-.48.48-1.088.72-1.808.72s-1.328-.24-1.808-.72zm13.087-6.048c-1.136 0-1.952.416-2.48 1.232V309h-1.728v8h1.728v-4.288c0-1.552.816-2.304 2.032-2.304 1.104 0 1.792.656 1.792 1.856V317h1.728v-4.912c0-2.048-1.232-3.296-3.072-3.296z" fill="#fff"/><rect x="281" y="280" width="79" height="77" rx="5" fill="#EB5757"/><g clip-path="url(#clip1)"><path d="M312 305v28l22-14-22-14z" fill="#fff"/></g><g filter="url(#filter6_d)"><rect x="281" y="370" width="154" height="63" rx="5" fill="#6FCF97"/></g><path d="M294.5 415c9.5-6.5 13.5-15 31.5-15s19.58 10 30.5 10c13 0 25.5-19.5 39.5-19.5s17.5 10 25 10.5" stroke="#000" stroke-opacity=".1" stroke-width="2" stroke-linecap="round" stroke-linejoin="round"/><path d="M294 415.5c9.5-6.5 12-25.5 30-25.5s22.08 16.5 33 16.5c13 0 24.5-27 38.5-27s18.5 21 26 21.5" stroke="#fff" stroke-width="2" stroke-linecap="round" stroke-linejoin="round"/><defs><linearGradient id="paint0_linear" x1="375.616" y1="-62.319" x2="337.792" y2="608.507" gradientUnits="userSpaceOnUse"><stop stop-color="#D1ECFF"/><stop offset="1" stop-color="#1070B1"/></linearGradient><linearGradient id="paint1_linear" x1="559.735" y1="224.576" x2="507.964" y2="258.395" gradientUnits="userSpaceOnUse"><stop stop-color="#FFF8E1"/><stop offset="1" stop-color="#FFCC80"/></linearGradient><linearGradient id="paint2_linear" x1="585.978" y1="241.241" x2="585.978" y2="318.5" gradientUnits="userSpaceOnUse"><stop stop-color="#AF6CED"/><stop offset="1" stop-color="#5E199D"/></linearGradient><linearGradient id="paint3_linear" x1="633.728" y1="301.5" x2="633.728" y2="411.5" gradientUnits="userSpaceOnUse"><stop stop-color="#EB5757"/><stop offset="1" stop-color="#872727"/></linearGradient><linearGradient id="paint4_linear" x1="575.716" y1="231.146" x2="557.595" y2="238.755" gradientUnits="userSpaceOnUse"><stop stop-color="#FFF8E1"/><stop offset="1" stop-color="#FFCC80"/></linearGradient><linearGradient id="paint5_linear" x1="588.276" y1="291.08" x2="576.596" y2="312.359" gradientUnits="userSpaceOnUse"><stop stop-color="#FFF8E1"/><stop offset="1" stop-color="#FFCC80"/></linearGradient><linearGradient id="paint6_linear" x1="193.393" y1="331.155" x2="498.893" y2="364.655" gradientUnits="userSpaceOnUse"><stop offset=".127" stop-color="#fff"/><stop offset=".972" stop-color="#fff" stop-opacity=".8"/></linearGradient><filter id="filter0_d" x="403" y="84" width="188" height="188" filterUnits="userSpaceOnUse" color-interpolation-filters="sRGB"><feFlood flood-opacity="0" result="BackgroundImageFix"/><feColorMatrix in="SourceAlpha" values="0 0 0 0 0 0 0 0 0 0 0 0 0 0 0 0 0 0 127 0" result="hardAlpha"/><feOffset/><feGaussianBlur stdDeviation="25"/><feColorMatrix values="0 0 0 0 0.0627451 0 0 0 0 0.439216 0 0 0 0 0.694118 0 0 0 0.25 0"/><feBlend in2="BackgroundImageFix" result="effect1_dropShadow"/><feBlend in="SourceGraphic" in2="effect1_dropShadow" result="shape"/></filter><filter id="filter1_d" x="396.139" y=".756" width="71.138" height="60.644" filterUnits="userSpaceOnUse" color-interpolation-filters="sRGB"><feFlood flood-opacity="0" result="BackgroundImageFix"/><feColorMatrix in="SourceAlpha" values="0 0 0 0 0 0 0 0 0 0 0 0 0 0 0 0 0 0 127 0" result="hardAlpha"/><feOffset dx="5" dy="5"/><feGaussianBlur stdDeviation="7.5"/><feColorMatrix values="0 0 0 0 0 0 0 0 0 0 0 0 0 0 0 0 0 0 0.15 0"/><feBlend in2="BackgroundImageFix" result="effect1_dropShadow"/><feBlend in="SourceGraphic" in2="effect1_dropShadow" result="shape"/></filter><filter id="filter2_d" x="570" y="78.011" width="71.138" height="60.644" filterUnits="userSpaceOnUse" color-interpolation-filters="sRGB"><feFlood flood-opacity="0" result="BackgroundImageFix"/><feColorMatrix in="SourceAlpha" values="0 0 0 0 0 0 0 0 0 0 0 0 0 0 0 0 0 0 127 0" result="hardAlpha"/><feOffset dx="5" dy="5"/><feGaussianBlur stdDeviation="7.5"/><feColorMatrix values="0 0 0 0 0 0 0 0 0 0 0 0 0 0 0 0 0 0 0.15 0"/><feBlend in2="BackgroundImageFix" result="effect1_dropShadow"/><feBlend in="SourceGraphic" in2="effect1_dropShadow" result="shape"/></filter><filter id="filter3_d" x="350" y="78.011" width="71.138" height="60.644" filterUnits="userSpaceOnUse" color-interpolation-filters="sRGB"><feFlood flood-opacity="0" result="BackgroundImageFix"/><feColorMatrix in="SourceAlpha" values="0 0 0 0 0 0 0 0 0 0 0 0 0 0 0 0 0 0 127 0" result="hardAlpha"/><feOffset dx="5" dy="5"/><feGaussianBlur stdDeviation="7.5"/><feColorMatrix values="0 0 0 0 0 0 0 0 0 0 0 0 0 0 0 0 0 0 0.15 0"/><feBlend in2="BackgroundImageFix" result="effect1_dropShadow"/><feBlend in="SourceGraphic" in2="effect1_dropShadow" result="shape"/></filter><filter id="filter4_d" x="524" y=".756" width="71.138" height="60.644" filterUnits="userSpaceOnUse" color-interpolation-filters="sRGB"><feFlood flood-opacity="0" result="BackgroundImageFix"/><feColorMatrix in="SourceAlpha" values="0 0 0 0 0 0 0 0 0 0 0 0 0 0 0 0 0 0 127 0" result="hardAlpha"/><feOffset dx="5" dy="5"/><feGaussianBlur stdDeviation="7.5"/><feColorMatrix values="0 0 0 0 0 0 0 0 0 0 0 0 0 0 0 0 0 0 0.15 0"/><feBlend in2="BackgroundImageFix" result="effect1_dropShadow"/><feBlend in="SourceGraphic" in2="effect1_dropShadow" result="shape"/></filter><filter id="filter5_d" x="174" y="283" width="101" height="70" filterUnits="userSpaceOnUse" color-interpolation-filters="sRGB"><feFlood flood-opacity="0" result="BackgroundImageFix"/><feColorMatrix in="SourceAlpha" values="0 0 0 0 0 0 0 0 0 0 0 0 0 0 0 0 0 0 127 0" result="hardAlpha"/><feOffset dx="5" dy="5"/><feGaussianBlur stdDeviation="5"/><feColorMatrix values="0 0 0 0 0.0627451 0 0 0 0 0.439216 0 0 0 0 0.694118 0 0 0 0.2 0"/><feBlend in2="BackgroundImageFix" result="effect1_dropShadow"/><feBlend in="SourceGraphic" in2="effect1_dropShadow" result="shape"/></filter><filter id="filter6_d" x="271" y="364" width="174" height="83" filterUnits="userSpaceOnUse" color-interpolation-filters="sRGB"><feFlood flood-opacity="0" result="BackgroundImageFix"/><feColorMatrix in="SourceAlpha" values="0 0 0 0 0 0 0 0 0 0 0 0 0 0 0 0 0 0 127 0" result="hardAlpha"/><feOffset dy="4"/><feGaussianBlur stdDeviation="5"/><feColorMatrix values="0 0 0 0 0.435294 0 0 0 0 0.811765 0 0 0 0 0.592157 0 0 0 0.2 0"/><feBlend in2="BackgroundImageFix" result="effect1_dropShadow"/><feBlend in="SourceGraphic" in2="effect1_dropShadow" result="shape"/></filter><clipPath id="clip0"><path fill="#fff" transform="translate(369 94.012)" d="M0 0h24v18.001H0z"/></clipPath><clipPath id="clip1"><path fill="#fff" transform="translate(296 295)" d="M0 0h48v48H0z"/></clipPath></defs></svg>